<?xml version="1.0" encoding="UTF-8" standalone="no"?>
<!-- Created with Inkscape (http://www.inkscape.org/) -->
<svg xmlns:inkscape="http://www.inkscape.org/namespaces/inkscape" xmlns:rdf="http://www.w3.org/1999/02/22-rdf-syntax-ns#" xmlns:ns1="http://sozi.baierouge.fr" xmlns:dc="http://purl.org/dc/elements/1.1/" xmlns="http://www.w3.org/2000/svg" xmlns:cc="http://web.resource.org/cc/" xmlns:xlink="http://www.w3.org/1999/xlink" xmlns:sodipodi="http://sodipodi.sourceforge.net/DTD/sodipodi-0.dtd" id="svg6374" version="1.0" viewBox="0 0 794.57 840.6" inkscape:version="0.91 r13725">
  <g id="layer1" transform="translate(14.429 -93.544)">
    <g id="g6451" transform="matrix(4.1445 0 0 3.8105 -1162.5 -1514.9)">
      <path id="path6455" style="fill:#f19f30" d="m360.5 641.91c-23.52-4.03-38.88-11.49-54.2-26.34-12.88-12.48-21.25-27.15-26.9-47.21l-2.4-8.5v-68.5-68.5l94.5-0.11c51.98-0.06 95.14 0.22 95.92 0.63 1.21 0.64 1.39 10.7 1.26 67.05-0.1 42.95-0.54 68.44-1.25 72.37-2.49 13.81-6.14 24.1-11.36 32.06-1.81 2.75-3.84 6.05-4.51 7.34-3.21 6.14-19.61 22.66-24.53 24.71-1.96 0.82-5.7 2.8-8.3 4.4-13.7 8.42-41.48 13.47-58.23 10.6z"/>
      <path id="path6453" style="fill:#2e160a" d="m361 641.74c-1.1-0.22-4.48-0.87-7.5-1.45-17.96-3.45-35.61-12.93-48.71-26.17-7.92-8-16.85-21.54-19.29-29.26-0.69-2.2-1.61-4.45-2.03-5-2.11-2.76-5.2-16.86-5.88-26.86-0.41-6.12-0.61-36.56-0.44-67.64 0.18-31.07 0.33-58.02 0.34-59.87l0.01-3.37 47.25 0.59c25.99 0.32 68.96 0.6 95.5 0.62l48.25 0.03v65.32c0 65.03-0.17 69.02-3.66 84.18-1.76 7.65-8.67 22.67-13.34 29-1.62 2.2-4.04 5.61-5.37 7.57-4.45 6.55-15.74 15.56-26.63 21.24-15.11 7.89-31.28 11.78-48 11.57-4.68-0.06-9.4-0.29-10.5-0.5zm21.37-4.4c9.79-1.03 23.15-4.69 29.13-7.97l3.5-1.92-3.68-0.05c-4.88-0.05-8.82-1.62-8.82-3.51 0-0.84 0.47-1.53 1.04-1.53 1.17 0 2.54-1.02 7.68-5.72 1.94-1.77 4.33-3.48 5.31-3.79 1.03-0.32 2.86-3.24 4.3-6.83 2.17-5.44 3.01-8.56 4.18-15.66 0.14-0.82-0.14-2.53-0.62-3.8-0.83-2.21-1.17-2.27-8.63-1.67-4.29 0.35-8.89 0.2-10.28-0.34-2.42-0.93-2.52-0.81-2.62 2.99-0.08 2.85-0.87 4.74-2.84 6.8-2.68 2.79-2.82 2.83-7.38 1.54-7.45-2.1-21.5-2.65-26.13-1.02-3.74 1.32-4.06 1.27-5.45-0.72-1.36-1.93-1.55-1.97-2.16-0.39-0.36 0.96-0.15 2.86 0.47 4.22 1.76 3.86 1.36 6.07-1.5 8.32-3.6 2.82-4.37 2.62-4.39-1.18 0-1.79-0.48-3.92-1.06-4.75-0.84-1.19-0.93-1.07-0.46 0.62 0.94 3.38-1.06 7.38-3.69 7.38-2.13 0-2.29-0.45-2.51-7.18-0.25-7.32 1.16-10.82 4.34-10.82 0.72 0 2.47-1.54 3.91-3.42 3.23-4.24 7.5-5.92 11.28-4.43 4.59 1.81 19.21 5.57 19.19 4.95-0.04-1.37-4.92-5.09-8.62-6.57-3.51-1.41-8.69-5.86-10.66-9.17-0.84-1.4 1.37-6.91 4.22-10.53 1.16-1.47 4.24-3.4 6.84-4.29 2.61-0.88 5.81-2.2 7.11-2.92 2.21-1.23 1.95-1.36-3.82-1.88-3.77-0.34-6.94-1.23-8.09-2.27-1.04-0.94-2.47-1.48-3.19-1.21-2.54 0.98-21.58-2.12-25.57-4.16-7.18-3.66-9.24-7-4.45-7.23 1.51-0.07 0.05-0.5-3.25-0.94-7.76-1.06-12.41-0.23-15.42 2.75l-2.43 2.4 1.63 9.17c1.18 6.68 2.16 9.59 3.62 10.71 1.91 1.47 4.6 6.71 4.26 8.29-0.09 0.41 0.29 0.75 0.84 0.75s1.01-1.01 1.03-2.25c0.03-2.13 0.09-2.15 1.14-0.34 1.41 2.43-1.18 4.59-5.5 4.59h-2.94l2.39 1.81c1.31 1 3.46 1.87 4.78 1.95 3.72 0.22 4.62 1.87 4.35 7.98-0.25 5.7-2.14 8.76-3.38 5.47-0.9-2.36-5.71-6.7-6.53-5.88-0.37 0.37-0.16 0.67 0.47 0.67 1.55 0 4.47 5.84 3.79 7.59-0.29 0.78-1.39 1.41-2.44 1.41-1.44 0-2.06-0.95-2.54-3.95-0.34-2.17-1.2-4.31-1.91-4.75-0.7-0.44-2.71-3.07-4.47-5.85-2.82-4.46-3.13-5.63-2.62-10 0.6-5.18-3.26-23.91-6.04-29.3-1.83-3.55 0.29-8.87 4.65-11.65 1.72-1.1 3.28-2.46 3.46-3.03 0.46-1.43-13.84-0.61-15.39 0.88-1.84 1.77-2.86 20.88-1.32 24.61 0.83 2 0.93 3.47 0.3 4.29-2.95 3.81-0.94 8.61 3.32 7.97 2.53-0.38 4.9 2.84 5.59 7.62 0.8 5.47-4 5.23-6.24-0.3-0.79-1.96-0.83-1.95-0.89 0.21-0.03 1.24 0.34 2.25 0.82 2.25 0.49 0 1.66 1.18 2.6 2.61 2.54 3.88 0.59 4.97-3.95 2.19-6.1-3.73-8.36-6.34-9.03-10.44-0.35-2.12-1.3-5.45-2.12-7.4-1.06-2.5-1.22-4.25-0.55-6 1.01-2.68 0.01-28.8-1.19-30.73-0.4-0.65 0.8-2.74 2.77-4.83 3.73-3.96 4.07-4.02 25.84-4.74 2.84-0.09 4.75-0.62 4.75-1.31 0-1.32 6.71-9.66 8.22-10.22 0.62-0.23 0.77 1.28 0.41 4-0.52 3.9-0.48 4.05 0.44 1.37 0.57-1.65 1.16-3.95 1.33-5.11 0.45-3.2 3.18-6.59 7.35-9.11 2.06-1.25 3.24-2.27 2.62-2.27-1.66-0.01-3.8-5.75-2.7-7.26 0.5-0.69 1.48-2.93 2.18-4.98 1.09-3.21 1.01-4.5-0.53-9.15-2.04-6.11-1.31-5.79-20.77-9.11-20.55-3.51-42.44-10.51-32.88-10.51 3.13 0 25.66 3.21 34.83 4.96 2.75 0.52 8.15 1.24 12 1.58l7 0.63-3-2.55c-3.52-2.99-5.06-3.23-6.32-0.98-1.11 1.99-3.18 0.95-3.18-1.59 0-3.63 5-3.99 11.47-0.85 3.78 1.84 4.74 1.98 5.78 0.85 1.02-1.1 0.91-1.22-0.64-0.67-2.81 0.99-5.42-1.95-6.17-6.96-0.5-3.3-0.27-4.73 0.94-5.94 2.1-2.1 3.94-0.89 3.19 2.1-0.5 2 0.02 2.68 3.38 4.4 2.73 1.39 3.8 2.5 3.41 3.53-0.32 0.82-1.05 1.49-1.63 1.49-0.59 0-0.77 0.3-0.4 0.66 0.36 0.37 1.53-0.13 2.6-1.1 1.07-0.96 2.42-1.46 3.01-1.1 1.39 0.87 1.34 0.42-0.36-3.05-1.8-3.67-1.02-12.41 1.1-12.41 0.78 0 1.89 1.33 2.45 2.95 0.57 1.63 2.57 3.86 4.47 4.98s3.71 2.72 4.03 3.55c0.64 1.66 4.37 2.13 4.37 0.55 0-0.53-0.68-0.71-1.5-0.39-2.31 0.89-1.78-1.02 1-3.64 2.62-2.46 3.19-4 1.5-4-0.55 0-1 0.68-1 1.5 0 1.91-2.88 1.97-3.61 0.08-1.06-2.76 1.47-5.58 5.02-5.58 2.72 0 3.56 0.53 4.5 2.79 0.93 2.25 0.84 3.4-0.48 6.06-1.73 3.46-1.43 4.75 0.88 3.86 0.77-0.29 1.67-2.17 1.99-4.17 0.72-4.46 4.11-7.46 8.47-7.5 2.54-0.03 3.53 0.52 4.41 2.46 1.51 3.3-1.37 7.01-4.24 5.47-2.45-1.31-2.94-1.22-2.94 0.53 0 0.83-0.9 2.4-2 3.5s-2 2.56-2 3.24 1.14 0.01 2.54-1.5c2.74-2.95 4.21-3.24 9.16-1.82 2.36 0.67 3.49 0.56 4.31-0.42 0.88-1.07 0.67-1.23-1.04-0.78-1.81 0.47-2.09 0.18-1.81-1.83 0.41-2.85 3.58-3.25 5.21-0.66 0.77 1.22 0.78 2.53 0.03 4.54-0.76 2-0.75 3.32 0.02 4.58 0.85 1.39 0.69 2.06-0.74 3.12-1.58 1.17-1.64 1.65-0.5 3.69 1.48 2.62 2.84 3.82 4.32 3.8 0.55-0.01 0.21-0.48-0.75-1.04-3.72-2.17-1.06-7.38 3.44-6.74 2.89 0.4 3.51 3.72 1.46 7.82-0.84 1.69-1.09 3.23-0.57 3.55 1.37 0.85 1.11 4.05-0.43 5.33-0.74 0.62-2.55 1.22-4.02 1.34-1.97 0.16-2.51 0.63-2.04 1.75 0.35 0.84 0.87 2.34 1.15 3.33 0.44 1.51 0.83 1.3 2.41-1.31 1.48-2.42 2.48-3.05 4.52-2.8 1.45 0.17 3.08 1.03 3.63 1.91 1.17 1.87 0.14 6.9-1.41 6.9-0.6 0-2.41 0.95-4.04 2.11-1.77 1.26-3.91 1.92-5.33 1.65-1.58-0.3-2.52 0.08-2.83 1.15-0.25 0.87-0.78 2.49-1.17 3.59-0.54 1.53-0.47 1.66 0.31 0.56 0.8-1.12 1.55-1.2 3.36-0.38 1.77 0.81 2.64 0.73 3.61-0.31 1.69-1.81 5.64-1.74 7.19 0.12 0.78 0.94 1 2.77 0.58 4.97-0.75 4 1.37 9.07 4.17 9.96 2.99 0.95 10.37 8.69 11.12 11.65 0.2 0.79 0.94 3.23 1.65 5.43l1.29 4 0.1-3.5c0.1-3.71-2.05-7.94-7.37-14.5-4.78-5.89-8.53-13.9-8.53-18.21 0-6.06 8.68-14.29 15.07-14.29 1.08 0 4.21 1.17 6.95 2.61 4.84 2.53 8.56 2.62 7.75 0.2-0.61-1.83-2.77-2.16-2.77-0.42 0 0.97-0.56 1.33-1.5 0.97-3.13-1.2-0.3-6.36 3.5-6.36 5.17 0 6.78 7.46 2.37 10.93l-2.64 2.07h2.67c3.62 0 5.16 3.72 2.63 6.35-1.78 1.84-6.9 2.45-10.68 1.28-1.02-0.32-2.48-0.19-3.26 0.3-1.13 0.71-0.69 1.85 2.24 5.84 4.99 6.8 6.55 13.76 4.35 19.38-1.97 4.99-1.63 5.95 0.79 2.26 1.89-2.89 2.15-6.84 1-15.62-0.73-5.59-0.67-5.79 2.73-9.18 3.33-3.33 3.63-3.43 7.8-2.5 4.45 1 6.91 3.13 6.97 6.04 0.02 0.9 0.71 1.9 1.53 2.21 0.82 0.32 1.5 1.73 1.5 3.14 0 2.82-3.85 5-7.04 3.99-1.54-0.49-1.72-0.06-1.32 3.22 0.62 5.03-2.25 10.75-5.46 10.91-4.32 0.22-4.45 1.99-0.22 3.25 2.93 0.88 4.19 1.88 4.64 3.66 0.34 1.35 1.01 2.21 1.5 1.91s1.41 0.58 2.04 1.96c0.93 2.04 0.83 3-0.52 5.06-1.63 2.49-1.61 2.54 0.82 2.54 2.67 0 4.91 2.92 4.02 5.24-0.29 0.75-2.14 2.11-4.11 3-3.68 1.67-7.38 1.14-8.87-1.28-0.5-0.81-1.37-0.51-2.85 0.99-1.17 1.18-2.91 2.69-3.86 3.35-1.83 1.26-1.46 5.7 0.46 5.7 0.55 0 0.77-0.9 0.48-2-0.58-2.23 0.29-2.59 2.04-0.84 1.62 1.61-0.27 4.84-2.83 4.84-2.13 0-6.92-4.15-6.92-6 0-0.6 1.09-2.18 2.43-3.52 2.13-2.13 2.31-2.84 1.45-5.94-0.98-3.56-3.31-5.54-6.51-5.54-1.38 0-1.5 0.27-0.57 1.2 1.95 1.95 1.38 6.07-1.38 10.14-1.68 2.46-2.32 4.39-1.85 5.48 0.68 1.56 0.77 1.55 1.16-0.07 0.55-2.29 1.91-2.23 2.52 0.11 0.76 2.9-1.06 5.14-4.19 5.14-2.24 0-3.17-0.71-4.45-3.41-2.02-4.24-1.07-7.18 3.36-10.43 1.75-1.28 2.95-2.57 2.67-2.85-0.83-0.84-12.5-0.89-11.99-0.06 0.26 0.41 1.16 0.75 2 0.75 1.21 0 1.4 0.78 0.9 3.75-0.34 2.06-0.72 7.03-0.84 11.04-0.22 7.69 0.52 9.13 4.79 9.23 1.1 0.02 4.25 1.15 7 2.5 2.75 1.36 5.53 2.47 6.18 2.47 2 0.02 2.51 3.75 0.93 6.8-1.83 3.53-4.17 13.61-5.1 21.89-0.66 5.94-0.61 6.16 1.42 5.63 2.84-0.74 3.35-1.83 1.56-3.32-1.55-1.28-2.06-4.01-0.74-3.96 0.41 0.02 1.57 1.15 2.56 2.52 1.9 2.61 1.52 6.45-0.64 6.45-0.65 0-1.77 0.93-2.48 2.07-0.75 1.2-2.21 1.99-3.49 1.89-1.21-0.1-2.69-0.13-3.28-0.07-1.25 0.13-8.93 10.94-8.26 11.61 0.87 0.87 12.43-7.42 18.13-13 11.69-11.43 18.36-22.13 24.35-39.06l2.81-7.94 0.52-66.5c0.29-36.57 0.39-67.73 0.22-69.23l-0.32-2.73-90.92-0.03-90.92-0.02 0.28 66.26c0.26 64.74 0.32 66.45 2.49 74.75 2.48 9.52 7.28 20.88 10.84 25.69 1.3 1.75 2.36 3.57 2.36 4.06 0 0.88 0.58 1.58 8.91 10.75 13.78 15.17 36.18 26.43 56.59 28.44 4.4 0.43 8.45 0.84 9 0.91 0.55 0.06 5.22-0.33 10.37-0.87zm29.13-16.15c0-0.46-0.45-0.83-1-0.83s-1 0.53-1 1.17c0 0.65-0.78 2.11-1.74 3.25-1.27 1.51-0.99 1.42 1-0.34 1.51-1.34 2.74-2.8 2.74-3.25zm-59-23.52c-0.82-0.3-2.06-1.25-2.75-2.11-1.14-1.44-1.25-1.43-1.25 0.03 0 1.67 1.44 2.61 4 2.61 1.33 0 1.33-0.06 0-0.53zm52.92-16.59c-0.23-0.16-1.32-0.94-2.42-1.75-1.85-1.36-1.9-1.34-0.63 0.28 0.76 0.96 1.84 1.75 2.42 1.75 0.57 0 0.86-0.13 0.63-0.28zm-9.51-4.97c-0.4-1.79-0.69-4.13-0.62-5.2 0.06-1.08-0.26-2.43-0.73-3-0.46-0.58-1.07-1.95-1.34-3.05-0.44-1.82-0.5-1.79-0.6 0.24-0.07 1.24-1.02 2.81-2.12 3.49-2.98 1.86-2.44 4.26 1.73 7.7 2.05 1.69 3.88 3.07 4.08 3.07 0.19 0 0.01-1.46-0.4-3.25zm-19.41-1.75c-0.59-1.1-1.3-2-1.57-2-0.28 0-0.02 0.9 0.57 2s1.3 2 1.57 2c0.28 0 0.02-0.9-0.57-2zm-75.32-9.19c-0.32-0.79-0.55-0.56-0.6 0.61-0.04 1.05 0.19 1.64 0.52 1.31 0.34-0.33 0.37-1.19 0.08-1.92zm96.4-1.91c-0.88-2.2-0.96-2.23-1.02-0.31-0.03 1.14 0.24 2.38 0.61 2.75 1.19 1.19 1.39 0.01 0.41-2.44zm-80.4-4.09c-0.32-0.79-0.55-0.56-0.6 0.61-0.04 1.05 0.19 1.64 0.52 1.31 0.34-0.33 0.37-1.19 0.08-1.92zm67.85-2.61c-0.31-0.31-1.12-0.01-1.8 0.68-0.98 0.99-0.86 1.1 0.56 0.56 0.99-0.38 1.54-0.94 1.24-1.24zm8.47-3.2c0-0.55-0.48-1-1.06-1s-0.78 0.45-0.44 1 0.82 1 1.06 1 0.44-0.45 0.44-1zm61.31-6.93c-0.61-2.32-3.31-3.62-3.31-1.59 0 1.09 2.23 3.21 3.66 3.49 0.08 0.02-0.07-0.84-0.35-1.9zm-142.74-2.64c-0.37-1.46-0.89-2.44-1.17-2.16-0.27 0.27-0.2 1.7 0.17 3.16 0.37 1.47 0.9 2.44 1.17 2.17 0.28-0.28 0.2-1.7-0.17-3.17zm44.68-1.09c-0.69-0.28-1.81-0.28-2.5 0s-0.13 0.5 1.25 0.5 1.94-0.22 1.25-0.5zm62.75-1.95c0-0.22-1.15-0.39-2.56-0.39s-2.31 0.41-2 0.91c0.51 0.83 4.56 0.36 4.56-0.52zm27.95-4.89c-0.36-1.1-1.79-2.64-3.18-3.43-2.23-1.27-3.06-1.23-7.28 0.38l-4.76 1.82 3.89 1.31c2.13 0.73 4.71 2.41 5.73 3.74l1.84 2.42 2.21-2.12c1.51-1.45 2-2.75 1.55-4.12zm-97.03 5.14c-0.95-0.83-9.84-1.32-9.34-0.51 0.29 0.48 2.61 0.87 5.15 0.87 2.53 0 4.42-0.16 4.19-0.36zm5.81-1.24c-0.33-0.33-1.2-0.37-1.92-0.08-0.8 0.32-0.56 0.56 0.61 0.6 1.05 0.05 1.64-0.19 1.31-0.52zm60.69-2c3.35-1.29 0.36-11-3.55-11.57-1.39-0.2-3.45-2.04-5.19-4.63-2.13-3.18-3.45-4.23-5.03-4-2.14 0.3-3.83 4.8-1.81 4.8 0.53 0 0.74-0.9 0.45-2-0.35-1.34-0.03-2 0.97-2 1.76 0 3.44 1.98 3.18 3.75-0.11 0.69-0.25 1.67-0.32 2.19-0.19 1.41-6.32 1.02-8.87-0.57-2.55-1.6-2.88-4.95-0.76-7.75 1.83-2.42 11.67-2.6 14.01-0.27 0.83 0.84 2.44 1.82 3.58 2.18 1.15 0.36 1.84 1.23 1.56 1.96-0.27 0.72 0.99 3.06 2.81 5.19 1.82 2.12 3.54 4.76 3.82 5.84 0.47 1.88 0.5 1.88 0.61-0.12 0.16-2.9-6.63-15.41-9.66-17.8-3.88-3.05-8.22-10.59-8.22-14.29 0-4.08-1.96-4.35-5.78-0.81-1.49 1.38-3.3 2.5-4.03 2.5-0.92 0-0.7 0.82 0.74 2.64 1.64 2.09 1.83 2.94 0.9 4.07-1.49 1.79-6.41 4.38-7.07 3.72-0.27-0.27-0.77 0.87-1.1 2.54-0.48 2.38-1.13 3.03-3.05 3.03-1.35 0-3.11 0.26-3.93 0.57-2.24 0.86-6.68-4.49-6.68-8.06 0.01-1.65 0.95-4.58 2.1-6.51l2.09-3.5-2.21 2.14c-2.88 2.8-3.86 10.34-1.64 12.56 0.86 0.86 1.35 1.78 1.08 2.05-0.27 0.26 0.99 1.02 2.8 1.68 6.55 2.39 12.26 5.63 14.67 8.33 1.59 1.79 4.79 3.46 9.08 4.73 4.35 1.3 7.61 3.01 9.51 4.99 1.59 1.66 3 3.02 3.13 3.02 0.12 0 0.94-0.27 1.81-0.6zm0.58-14.4c-1.17-1.65-1.75-3-1.28-3s1.65 1.35 2.62 3c0.98 1.65 1.55 3 1.28 3-0.26 0-1.45-1.35-2.62-3zm-70.73 12.35c-0.68-0.28-2.03-0.29-3-0.04s-0.42 0.48 1.23 0.5 2.45-0.19 1.77-0.46zm10.5-1.38c1.6-1.04 1.6-1.08-0.1-0.54-1.01 0.31-3.37 0.57-5.25 0.57s-3.42 0.37-3.42 0.82c0 1.15 6.67 0.5 8.77-0.85zm-66.06-6.21c-0.24-1.24-0.45-0.46-0.46 1.74s0.19 3.22 0.44 2.26c0.25-0.95 0.26-2.75 0.02-4zm25.82-0.56c-0.31-0.31-1.12-0.01-1.8 0.68-0.98 0.99-0.86 1.1 0.56 0.56 0.99-0.38 1.54-0.94 1.24-1.24zm42.65-0.41c-0.71-0.72-1.18-0.78-1.18-0.15 0 1.33 1.18 2.51 1.85 1.85 0.28-0.29-0.02-1.05-0.67-1.7zm25.5-0.98c-0.32-0.79-0.55-0.56-0.6 0.61-0.04 1.05 0.19 1.64 0.52 1.31 0.34-0.33 0.37-1.19 0.08-1.92zm-52.18-1.81c2.98-0.76 2.99-0.76 0.33-0.88-1.92-0.08-2.96-0.88-3.73-2.87-1.06-2.71-1.07-2.7-0.51 0.5 0.69 3.94-1.47 4.49-3.95 1-1.04-1.47-1.39-1.64-1.01-0.5 0.39 1.19 0.06 1.75-1.02 1.75-0.89 0-1.61 0.45-1.61 1 0 1.14 7.02 1.14 11.5 0zm29-2c0.85-1.65 1.19-3 0.74-3-0.44 0-1.31 1.35-1.93 3-0.63 1.65-0.96 3-0.75 3s1.09-1.35 1.94-3zm-13.5 0.75c0-0.91-1.66-0.82-5 0.26-2.13 0.69-1.95 0.79 1.25 0.65 2.06-0.09 3.75-0.5 3.75-0.91zm26.69-2.48c-0.25-0.97-0.47-0.42-0.5 1.23-0.02 1.65 0.19 2.45 0.47 1.77 0.27-0.68 0.29-2.03 0.03-3zm74.39-3.71c0.05-1.13 0.27-3.18 0.51-4.56 1.59-9.35 1.58-13-0.05-13.62-0.91-0.35-2.49-0.24-3.52 0.24-1.77 0.83-1.78 1.1-0.28 4.88 1.77 4.47 2.12 10.25 0.95 15.5-0.73 3.28-0.68 3.38 0.76 1.56 0.85-1.07 1.59-2.87 1.63-4zm-14.09 1.13c-0.01-4.39-2.13-9.67-5.52-13.73-2.6-3.1-3.47-5.09-3.47-7.88 0-4.55 3.44-8.23 7.9-8.46 1.67-0.08 3.54-0.66 4.15-1.27 0.84-0.83-0.69-1.15-5.84-1.23-7.65-0.12-8.66 0.47-10.24 5.97-0.79 2.76-0.53 3.99 1.59 7.6 1.39 2.37 2.92 4.31 3.4 4.31 1.85 0 5.01 6.89 5.64 12.3 0.63 5.34 2.41 7.12 2.39 2.39zm-101.61-5.24c0.34-0.89 0.18-1.29-0.39-0.94-0.55 0.34-0.99 1.03-0.99 1.55 0 1.44 0.72 1.12 1.38-0.61zm49.21-5.86c-0.31-1.15-0.6-2.54-0.65-3.09-0.09-1.16-1.77 2.48-1.87 4.09-0.04 0.59 0.64 1.08 1.5 1.08 1.11 0 1.41-0.62 1.02-2.08zm-41.09-3.42c-0.61-0.61-4.5 2.84-4.5 3.98 0 0.46 1.12-0.14 2.49-1.33s2.28-2.38 2.01-2.65zm51.5 2.33c0-0.82-0.18-1.5-0.39-1.5-0.22 0-0.66 0.68-0.97 1.5-0.32 0.83-0.14 1.5 0.39 1.5s0.97-0.67 0.97-1.5zm-14.03-4c0-0.55-0.44-0.32-0.97 0.5-0.53 0.83-0.97 1.95-0.97 2.5s0.44 0.33 0.97-0.5c0.53-0.82 0.97-1.95 0.97-2.5zm-31.97-2.75c0-1.65-1.76 0.23-2.33 2.49-0.55 2.18-0.52 2.19 0.88 0.32 0.8-1.07 1.45-2.33 1.45-2.81zm3.54 3.19c1.08-1.75-0.15-2.11-1.52-0.46-0.79 0.95-0.86 1.52-0.2 1.52 0.58 0 1.36-0.48 1.72-1.06zm40.46-2.26c0-0.25-0.68-0.72-1.5-1.04-1.09-0.42-1.5 0.12-1.5 1.96 0 2.26 0.17 2.38 1.5 1.05 0.82-0.83 1.5-1.71 1.5-1.97zm-35.47-2.48c-0.31-0.31-1.12-0.01-1.8 0.68-0.98 0.99-0.86 1.1 0.56 0.56 0.99-0.38 1.54-0.94 1.24-1.24zm22.57-7.01c0.6-1.83 0.83-3.59 0.5-3.92s-0.6 0.04-0.6 0.82c0 0.79-1.12 3.54-2.5 6.12-1.38 2.59-2.5 5.06-2.49 5.5 0.01 1.46 3.97-5.17 5.09-8.52zm6.71 6.29c-0.31-0.31-0.87 0.24-1.25 1.23-0.54 1.42-0.42 1.54 0.56 0.56 0.69-0.68 0.99-1.49 0.69-1.79zm-2.9-3.98c0.03-0.55-0.38-0.32-0.91 0.5-0.53 0.83-0.94 2.18-0.91 3 0.05 1.59 1.72-1.6 1.82-3.5zm-35.91 2.11c0-0.22-0.7-0.66-1.55-0.99-0.89-0.34-1.29-0.17-0.94 0.39 0.58 0.95 2.49 1.41 2.49 0.6zm50-1c0-0.22-0.7-0.66-1.55-0.99-0.89-0.34-1.29-0.17-0.94 0.39 0.58 0.95 2.49 1.41 2.49 0.6zm9-0.61c0-0.55-0.48-1-1.06-1s-0.78 0.45-0.44 1 0.82 1 1.06 1 0.44-0.45 0.44-1zm13.73-2.13c0.09-1.17 1.17-3.19 2.39-4.5 2.53-2.68 1.44-3.15-1.9-0.81-1.44 1.01-2.22 2.59-2.22 4.5 0 3.35 1.49 4.05 1.73 0.81zm-63.52-1.87c1.95 0 4.02-0.56 4.59-1.26 1.4-1.69 0.05-7.98-1.83-8.49-0.99-0.27-1.1-0.13-0.32 0.43 0.64 0.45 1.31 2.4 1.5 4.32 0.34 3.38 0.22 3.51-3.3 3.81-2.51 0.21-3.63-0.11-3.59-1 0.14-3.29-0.35-4.87-1.31-4.28-0.72 0.45-0.69 1.08 0.09 2.03 0.89 1.06 0.63 2.12-1.14 4.66-2 2.88-2.03 3.07-0.26 1.53 1.11-0.96 3.61-1.75 5.57-1.75zm84.79 1c0-0.55-0.48-1-1.06-1s-0.78 0.45-0.44 1 0.82 1 1.06 1 0.44-0.45 0.44-1zm-91.87-1.75c1.27-1.62 1.22-1.64-0.63-0.28-1.1 0.81-2.19 1.59-2.42 1.75-0.23 0.15 0.06 0.28 0.63 0.28 0.58 0 1.66-0.79 2.42-1.75zm-4.13-4.19c0-0.52-0.45-1.22-1-1.56s-1 0.09-1 0.94c0 0.86 0.45 1.56 1 1.56s1-0.42 1-0.94zm47.5-3.06c-0.34-0.55-1.15-0.99-1.81-0.98-0.71 0.01-0.59 0.4 0.31 0.98 1.92 1.24 2.27 1.24 1.5 0zm-23.5-1c0-0.55-0.48-1-1.06-1s-0.78 0.45-0.44 1 0.82 1 1.06 1 0.44-0.45 0.44-1zm25.02-3.47c-0.7-0.84-2-1.5-2.89-1.46-1.1 0.04-0.9 0.35 0.62 0.96 1.24 0.5 2.25 1.45 2.25 2.11s0.29 0.91 0.64 0.55c0.36-0.35 0.08-1.33-0.62-2.16zm-27.56-3.1c1.64-2.51 1.63-2.55-0.39-1.47-1.14 0.61-2.07 1.77-2.07 2.58 0 2.07 0.53 1.83 2.46-1.11zm6.54-4.93c0-1.37-0.17-2.5-0.38-2.5s-0.6 1.13-0.86 2.5c-0.27 1.38-0.1 2.5 0.38 2.5 0.47 0 0.86-1.12 0.86-2.5zm-30.34-3.75c-0.28-0.69-0.5-0.12-0.5 1.25 0 1.38 0.22 1.94 0.5 1.25s0.28-1.81 0-2.5zm8.84 1.25c-0.44-2.28 0.49-2.57 2.42-0.75 1.07 1.01 1.24 0.96 0.87-0.25-0.56-1.84-3.64-2.55-5.03-1.16-1.16 1.16-0.33 4.16 1.15 4.16 0.54 0 0.8-0.9 0.59-2zm49.25 1.31c-0.96-0.25-1.75-0.87-1.75-1.38s-1.91-0.86-4.25-0.77c-4.04 0.15-4.08 0.18-0.75 0.57 1.92 0.23 3.93 0.83 4.45 1.34s1.65 0.88 2.5 0.82c1.19-0.09 1.14-0.23-0.2-0.58zm-31.63-4.57c-0.98-0.98-1.1-0.87-0.56 0.56 0.38 0.98 0.94 1.54 1.25 1.23 0.3-0.31 0-1.12-0.69-1.79zm-24.4-2.75c0.13-1.37-0.04-1.81-0.36-0.99-0.33 0.83-1.33 2.11-2.23 2.84-1.47 1.21-1.44 1.31 0.37 0.99 1.29-0.22 2.08-1.23 2.22-2.84zm46.28 0.4c0-0.22-1.12-0.39-2.5-0.39s-2.5 0.39-2.5 0.86c0 0.48 1.12 0.65 2.5 0.39 1.38-0.27 2.5-0.65 2.5-0.86zm-2-2.39c0.82-0.53 1.05-0.97 0.5-0.97s-1.68 0.44-2.5 0.97c-0.82 0.54-1.05 0.97-0.5 0.97s1.68-0.43 2.5-0.97zm-28.62-4c0.97-1.3 0.89-1.32-0.63-0.13-0.96 0.76-1.71 2.11-1.67 3 0.06 1.37 0.17 1.39 0.63 0.13 0.31-0.82 1.06-2.17 1.67-3zm-14.85 1.2c-0.31-0.31-1.12-0.01-1.8 0.68-0.98 0.99-0.86 1.1 0.56 0.56 0.99-0.38 1.54-0.94 1.24-1.24zm11.47-0.7c0-0.82-0.18-1.5-0.39-1.5-0.22 0-0.66 0.68-0.97 1.5-0.32 0.83-0.14 1.5 0.39 1.5s0.97-0.67 0.97-1.5zm32.5 0.5c1.93-0.83 1.92-0.86-0.19-0.93-1.21-0.04-2.47 0.38-2.81 0.93-0.73 1.18 0.25 1.18 3 0zm-38.94-2.77c-0.33-0.33-1.38 0.2-2.33 1.2-1.65 1.73-1.63 1.75 0.61 0.61 1.28-0.66 2.06-1.47 1.72-1.81zm27.12-0.42c-0.32-0.79-0.55-0.56-0.6 0.61-0.04 1.05 0.19 1.64 0.52 1.31 0.34-0.33 0.37-1.19 0.08-1.92zm-4.02-2.06c-0.28-0.69-0.5-0.12-0.5 1.25 0 1.38 0.22 1.94 0.5 1.25s0.28-1.81 0-2.5zm-18.23-0.65c-0.26-0.26-1.25 0.33-2.2 1.32-1.65 1.73-1.63 1.75 0.47 0.48 1.22-0.73 1.99-1.54 1.73-1.8zm39.57 0.9c0-0.55-0.2-1-0.44-1s-0.72 0.45-1.06 1-0.14 1 0.44 1 1.06-0.45 1.06-1zm-6.08-1.64c0.23-0.2-1.21-0.36-3.19-0.36-1.99 0-3.87 0.43-4.19 0.94-0.53 0.86 6.33 0.32 7.38-0.58zm-4.56-10.86c0.32-0.82 0.14-1.5-0.39-1.5s-0.97 0.68-0.97 1.5c0 0.83 0.18 1.5 0.39 1.5 0.22 0 0.66-0.67 0.97-1.5z"/>
    </g>
  </g>
  <metadata>
    <rdf:RDF>
      <cc:Work>
        <dc:format>image/svg+xml</dc:format>
        <dc:type rdf:resource="http://purl.org/dc/dcmitype/StillImage"/>
        <cc:license rdf:resource="http://creativecommons.org/licenses/publicdomain/"/>
        <dc:publisher>
          <cc:Agent rdf:about="http://openclipart.org/">
            <dc:title>Openclipart</dc:title>
          </cc:Agent>
        </dc:publisher>
      </cc:Work>
      <cc:License rdf:about="http://creativecommons.org/licenses/publicdomain/">
        <cc:permits rdf:resource="http://creativecommons.org/ns#Reproduction"/>
        <cc:permits rdf:resource="http://creativecommons.org/ns#Distribution"/>
        <cc:permits rdf:resource="http://creativecommons.org/ns#DerivativeWorks"/>
      </cc:License>
    </rdf:RDF>
  </metadata>
</svg>
