<?xml version="1.0" standalone="no"?>
<!DOCTYPE svg PUBLIC "-//W3C//DTD SVG 20010904//EN"
 "http://www.w3.org/TR/2001/REC-SVG-20010904/DTD/svg10.dtd">
<svg version="1.0" xmlns="http://www.w3.org/2000/svg"
 width="841.000000pt" height="841.000000pt" viewBox="0 0 841.000000 841.000000"
 preserveAspectRatio="xMidYMid meet">
<metadata>
Created by potrace 1.11, written by Peter Selinger 2001-2013
</metadata>
<g transform="translate(0.000000,841.000000) scale(0.100000,-0.100000)"
fill="#000000" stroke="none">
<path d="M250 8395 c0 -8 -4 -15 -10 -15 -7 0 -10 -877 -10 -2611 l0 -2612 22
-71 c12 -39 22 -73 23 -76 5 -21 46 -149 87 -270 26 -80 50 -153 53 -162 2 -9
13 -37 23 -62 11 -24 18 -47 14 -50 -3 -3 1 -6 8 -6 7 0 11 -3 8 -6 -4 -3 3
-27 14 -52 56 -129 70 -160 88 -195 11 -22 20 -43 20 -48 0 -6 5 -15 10 -22
10 -12 78 -140 109 -205 8 -17 19 -32 23 -32 4 0 8 -5 8 -10 0 -13 94 -160
174 -270 138 -193 374 -452 548 -602 44 -38 86 -74 94 -81 7 -7 19 -17 26 -22
118 -92 157 -122 235 -178 51 -37 97 -67 102 -67 5 0 11 -4 13 -8 2 -5 46 -34
98 -65 52 -31 100 -60 105 -64 6 -5 24 -15 40 -24 17 -8 59 -30 95 -49 36 -19
67 -34 70 -35 3 0 30 -12 60 -27 137 -65 229 -101 400 -158 136 -45 229 -72
395 -111 151 -36 162 -38 195 -44 14 -2 36 -6 50 -9 14 -3 41 -9 60 -12 19 -4
44 -8 55 -11 11 -2 36 -6 55 -8 19 -3 60 -10 91 -15 103 -19 181 -23 449 -22
280 0 367 4 530 27 14 2 50 6 80 9 30 3 66 8 80 11 13 2 42 7 65 10 38 6 116
19 160 28 11 3 40 8 65 13 52 9 59 11 63 14 1 1 13 3 27 5 14 2 53 10 87 19
35 10 73 19 85 21 30 6 141 39 270 82 59 19 109 33 111 31 2 -2 10 2 18 9 8 6
41 22 74 34 33 12 155 70 270 128 116 59 248 124 295 146 74 33 241 143 296
193 11 10 60 51 109 92 50 41 95 79 102 85 6 5 35 30 64 55 67 58 153 144 204
204 22 25 59 68 83 94 85 93 150 179 223 292 40 63 76 117 79 120 3 3 42 59
85 124 75 113 200 344 229 425 8 20 28 74 45 121 28 74 86 256 96 300 2 8 4
15 5 15 1 0 3 7 5 15 1 8 10 44 19 80 8 36 18 76 20 90 3 14 10 42 15 63 5 20
7 37 5 37 -3 0 -1 8 5 18 14 27 43 568 41 770 0 6 0 18 0 25 0 6 3 181 7 387
8 485 10 4146 1 4155 -3 4 -51 8 -107 10 -55 2 -105 6 -110 9 -5 4 -13 2 -16
-4 -4 -6 -16 -8 -27 -4 -35 11 -776 15 -3405 18 -1415 1 -2576 5 -2579 9 -4 3
-15 2 -25 -4 -11 -5 -19 -6 -19 -2 0 4 -147 9 -328 10 -180 0 -546 4 -814 7
-423 4 -488 3 -488 -9z"/>
</g>
</svg>
